<?xml version="1.0" standalone="no"?>
<!DOCTYPE svg PUBLIC "-//W3C//DTD SVG 20010904//EN"
 "http://www.w3.org/TR/2001/REC-SVG-20010904/DTD/svg10.dtd">
<svg version="1.0" xmlns="http://www.w3.org/2000/svg"
 width="168.000000pt" height="164.000000pt" viewBox="0 0 168.000000 164.000000"
 preserveAspectRatio="xMidYMid meet">
<metadata>
Created by potrace 1.10, written by Peter Selinger 2001-2011
</metadata>
<g transform="translate(0.000000,164.000000) scale(0.100000,-0.100000)"
fill="#000000" stroke="none">
<path d="M335 1565 c-94 -31 -156 -68 -223 -130 l-55 -51 55 -27 c74 -37 142
-97 168 -153 36 -74 26 -134 -47 -289 -80 -168 -96 -232 -96 -365 0 -89 5
-116 28 -180 15 -41 40 -94 56 -116 43 -63 127 -134 194 -164 106 -49 142 -52
510 -46 378 5 474 12 481 30 8 20 -46 94 -78 107 -23 9 -41 9 -95 -5 -76 -18
-93 -12 -75 29 12 26 38 43 49 32 3 -4 -2 -18 -11 -31 -23 -36 -20 -38 22 -15
88 48 155 163 156 271 l1 67 35 -34 c31 -29 41 -33 80 -30 38 2 50 8 85 47 22
25 48 66 58 91 l18 45 -28 45 c-15 24 -45 63 -66 87 l-38 42 -34 -39 c-19 -21
-34 -41 -35 -45 0 -5 -4 -8 -9 -8 -5 0 -11 18 -15 39 -3 22 -9 46 -12 54 -4
11 11 20 60 37 51 17 74 31 105 66 58 66 60 90 16 172 -21 37 -50 88 -66 113
-28 44 -29 48 -18 104 10 53 6 141 -7 188 -14 48 -85 -18 -125 -118 l-17 -40
-66 -2 c-61 -1 -66 0 -66 20 0 66 -74 187 -114 187 -22 0 -71 -70 -96 -138
-16 -41 -21 -75 -19 -128 2 -68 -1 -78 -40 -153 -23 -45 -39 -85 -36 -90 5
-10 -68 -113 -168 -236 -64 -79 -113 -163 -137 -236 -29 -86 -28 -217 4 -304
13 -36 22 -65 19 -65 -2 0 -21 9 -42 20 -115 58 -165 229 -111 373 26 68 70
125 202 259 103 104 133 153 150 246 15 79 -7 164 -64 251 -49 75 -103 120
-199 166 -41 20 -65 34 -54 31 11 -2 40 -8 65 -11 92 -14 201 -98 249 -193 29
-57 51 -146 51 -207 0 -48 13 -86 24 -74 16 16 17 128 1 188 -44 169 -154 286
-310 327 -78 21 -189 17 -270 -11z m814 -102 c13 -27 29 -75 36 -108 9 -43 16
-59 26 -55 8 2 44 4 80 4 77 -1 140 -31 184 -88 29 -38 115 -186 115 -198 0
-5 -21 -8 -46 -8 -27 0 -43 -4 -39 -10 3 -5 22 -10 41 -10 40 0 42 -6 12 -37
-23 -25 -48 -29 -79 -13 -25 14 -24 38 2 66 l21 22 -25 17 c-16 10 -34 14 -52
9 -36 -9 -44 -34 -17 -52 27 -18 28 -48 3 -62 -28 -14 -52 -13 -71 5 -15 13
-19 13 -29 2 -26 -32 59 -54 108 -28 15 9 27 9 41 1 11 -6 20 -12 20 -15 0 -2
-26 -11 -57 -20 -45 -13 -83 -16 -165 -12 l-106 5 16 -37 c28 -61 53 -92 101
-123 58 -36 159 -68 219 -68 57 0 48 -9 -53 -47 -211 -81 -362 -57 -467 74
l-30 38 7 -35 c3 -19 9 -42 11 -51 3 -12 -8 -22 -38 -34 l-43 -18 45 -8 c63
-12 97 -27 162 -72 64 -44 84 -80 81 -147 -2 -60 -25 -112 -74 -165 l-39 -43
46 -7 c55 -8 111 -33 118 -52 4 -11 -32 -13 -196 -13 l-202 0 -56 58 c-65 67
-103 140 -120 231 -24 132 25 270 153 428 39 48 93 119 119 156 l47 69 14 -29
c17 -32 74 -89 82 -81 3 3 -3 16 -13 29 -42 57 -65 135 -51 181 5 18 22 48 37
67 21 27 27 41 21 56 -13 35 -10 121 8 174 9 28 19 51 22 51 3 0 6 -28 6 -63
1 -34 7 -81 13 -104 30 -101 53 -7 29 112 -10 44 -17 86 -17 93 0 25 17 10 39
-35z m-557 -1 c173 -85 259 -284 190 -435 -14 -32 -64 -92 -145 -176 -140
-143 -179 -203 -203 -309 -15 -67 -15 -78 0 -144 28 -123 90 -200 190 -234 68
-23 58 -38 -21 -32 -99 8 -173 40 -243 105 -101 93 -148 218 -137 363 7 87 17
119 87 270 79 169 95 251 68 344 -17 56 -110 150 -166 167 -23 7 -42 15 -42
19 0 14 81 63 133 82 83 30 206 21 289 -20z m882 -47 c9 -47 -3 -125 -19 -125
-6 0 -19 8 -27 18 -13 15 -13 24 5 80 10 34 22 62 27 62 4 0 11 -16 14 -35z
m-102 -630 c5 -16 6 -40 3 -53 -5 -21 -7 -22 -35 -7 -37 19 -100 74 -100 87 0
5 28 8 62 6 59 -3 62 -4 70 -33z m152 -41 c22 -9 22 -74 0 -74 -12 0 -15 7
-12 29 2 17 1 28 -4 25 -4 -3 -8 -14 -8 -25 0 -21 -16 -24 -40 -9 -12 7 -12
12 -2 22 6 6 12 8 12 3 0 -5 7 1 16 13 17 25 16 24 38 16z m69 -53 c13 -23 15
-31 5 -31 -23 0 -35 14 -43 50 -6 29 -5 33 6 23 8 -6 22 -25 32 -42z m12 -73
c-11 -35 -53 -86 -84 -103 -27 -13 -30 -13 -56 15 -28 29 -28 30 -9 44 17 13
20 12 25 -12 7 -27 7 -27 8 4 1 30 25 63 37 51 4 -3 2 -19 -4 -35 -7 -22 -7
-29 3 -29 8 0 16 16 20 36 9 47 12 51 41 51 22 0 24 -3 19 -22z m-278 -143
c-8 -57 -46 -129 -92 -177 -20 -21 -37 -38 -39 -38 -1 0 2 22 7 48 13 60 3
110 -28 156 -14 20 -25 38 -25 40 0 2 19 2 43 -1 33 -3 94 4 136 16 2 1 1 -19
-2 -44z m10 -337 c29 -33 36 -48 21 -48 -14 1 -63 70 -49 70 4 0 17 -10 28
-22z m-17 -45 c0 -22 -17 -15 -39 16 -29 40 -26 45 9 19 17 -12 30 -28 30 -35z
m-81 27 c24 -12 35 -40 17 -40 -8 0 -21 11 -30 25 -18 27 -15 30 13 15z m-521
-12 c20 -20 14 -28 -23 -28 -19 0 -35 4 -35 8 0 12 22 32 35 32 6 0 16 -5 23
-12z"/>
<path d="M1192 1150 c-44 -41 -20 -110 38 -110 50 0 69 71 30 110 -25 25 -41
25 -68 0z"/>
</g>
</svg>
